<svg width="33" height="18" viewBox="0 0 33 18" fill="none" xmlns="http://www.w3.org/2000/svg">
<path d="M1.5 10.5H27.8787L22.9393 15.4394C22.3535 16.0251 22.3535 16.9749 22.9393 17.5607C23.2322 17.8535 23.6161 18 24 18C24.3839 18 24.7678 17.8535 25.0606 17.5606L32.5606 10.0606C33.1464 9.47489 33.1464 8.52509 32.5606 7.93929L25.0606 0.439276C24.4749 -0.146425 23.5251 -0.146425 22.9393 0.439276C22.3535 1.02498 22.3535 1.97478 22.9393 2.56058L27.8787 7.49999H1.5C0.671601 7.49999 0 8.17159 0 8.99999C0 9.82839 0.671601 10.5 1.5 10.5Z" fill="#D9D9D9"/>
</svg>
